{
  "accessors": [
    {
      "bufferView": 0,
      "componentType": 5125,
      "count": 62400,
      "type": "SCALAR"
    },
    {
      "bufferView": 1,
      "componentType": 5126,
      "count": 11200,
      "max": [
        0.316918015480042,
        0.296018809080124,
        0.230744510889053
      ],
      "min": [
        -0.305319786071777,
        -0.365001827478409,
        0.00531724095344543
      ],
      "type": "VEC3"
    },
    {
      "bufferView": 2,
      "componentType": 5126,
      "count": 11200,
      "type": "VEC3"
    },
    {
      "bufferView": 3,
      "componentType": 5126,
      "count": 11200,
      "type": "VEC2"
    },
    {
      "bufferView": 4,
      "componentType": 5125,
      "count": 73248,
      "type": "SCALAR"
    },
    {
      "bufferView": 5,
      "componentType": 5126,
      "count": 12609,
      "max": [
        0.357677161693573,
        0.210897997021675,
        0.41505554318428
      ],
      "min": [
        -0.346077084541321,
        -0.401471704244614,
        0.179917708039284
      ],
      "type": "VEC3"
    },
    {
      "bufferView": 6,
      "componentType": 5126,
      "count": 12609,
      "type": "VEC3"
    },
    {
      "bufferView": 7,
      "componentType": 5126,
      "count": 12609,
      "type": "VEC2"
    },
    {
      "bufferView": 8,
      "componentType": 5125,
      "count": 12096,
      "type": "SCALAR"
    },
    {
      "bufferView": 9,
      "componentType": 5126,
      "count": 2480,
      "max": [
        0.312150716781616,
        0.289564371109009,
        0.00944569706916809
      ],
      "min": [
        -0.300719678401947,
        -0.357193201780319,
        1.16229057312012e-05
      ],
      "type": "VEC3"
    },
    {
      "bufferView": 10,
      "componentType": 5126,
      "count": 2480,
      "type": "VEC3"
    },
    {
      "bufferView": 11,
      "componentType": 5126,
      "count": 2480,
      "type": "VEC2"
    },
    {
      "bufferView": 12,
      "componentType": 5125,
      "count": 51030,
      "type": "SCALAR"
    },
    {
      "bufferView": 13,
      "componentType": 5126,
      "count": 10156,
      "max": [
        0.380430579185486,
        0.414607495069504,
        0.738459527492523
      ],
      "min": [
        -0.369195342063904,
        -0.184030517935753,
        0.187337309122086
      ],
      "type": "VEC3"
    },
    {
      "bufferView": 14,
      "componentType": 5126,
      "count": 10156,
      "type": "VEC3"
    },
    {
      "bufferView": 15,
      "componentType": 5126,
      "count": 10156,
      "type": "VEC2"
    }
  ],
  "asset": {
    "generator": "Adobe Substance 3D Painter 7.3.0",
    "version": "2.0"
  },
  "bufferViews": [
    {
      "buffer": 0,
      "byteLength": 249600,
      "target": 34963
    },
    {
      "buffer": 0,
      "byteLength": 134400,
      "byteOffset": 249600,
      "target": 34962
    },
    {
      "buffer": 0,
      "byteLength": 134400,
      "byteOffset": 384000,
      "target": 34962
    },
    {
      "buffer": 0,
      "byteLength": 89600,
      "byteOffset": 518400,
      "target": 34962
    },
    {
      "buffer": 0,
      "byteLength": 292992,
      "byteOffset": 608000,
      "target": 34963
    },
    {
      "buffer": 0,
      "byteLength": 151308,
      "byteOffset": 900992,
      "target": 34962
    },
    {
      "buffer": 0,
      "byteLength": 151308,
      "byteOffset": 1052300,
      "target": 34962
    },
    {
      "buffer": 0,
      "byteLength": 100872,
      "byteOffset": 1203608,
      "target": 34962
    },
    {
      "buffer": 0,
      "byteLength": 48384,
      "byteOffset": 1304480,
      "target": 34963
    },
    {
      "buffer": 0,
      "byteLength": 29760,
      "byteOffset": 1352864,
      "target": 34962
    },
    {
      "buffer": 0,
      "byteLength": 29760,
      "byteOffset": 1382624,
      "target": 34962
    },
    {
      "buffer": 0,
      "byteLength": 19840,
      "byteOffset": 1412384,
      "target": 34962
    },
    {
      "buffer": 0,
      "byteLength": 204120,
      "byteOffset": 1432224,
      "target": 34963
    },
    {
      "buffer": 0,
      "byteLength": 121872,
      "byteOffset": 1636344,
      "target": 34962
    },
    {
      "buffer": 0,
      "byteLength": 121872,
      "byteOffset": 1758216,
      "target": 34962
    },
    {
      "buffer": 0,
      "byteLength": 81248,
      "byteOffset": 1880088,
      "target": 34962
    }
  ],
  "buffers": [
    {
      "byteLength": 1961336,
      "uri": "sp.bin"
    }
  ],
  "images": [
    {
      "uri": "S0311001_Can_Cloth_SF1_baseColor.png"
    },
    {
      "uri": "S0311001_Can_Cloth_SF1_occlusionRoughnessMetallic.png"
    },
    {
      "uri": "S0311001_Can_Cloth_SF1_normal.png"
    },
    {
      "uri": "S0311001_Can_Cloth_SF2_baseColor.png"
    },
    {
      "uri": "S0311001_Can_Cloth_SF2_occlusionRoughnessMetallic.png"
    },
    {
      "uri": "S0311001_Can_Cloth_SF2_normal.png"
    },
    {
      "uri": "S0311001_Cannot_OT1_baseColor.png"
    },
    {
      "uri": "S0311001_Cannot_OT1_occlusionRoughnessMetallic.png"
    },
    {
      "uri": "S0311001_Cannot_OT1_normal.png"
    },
    {
      "uri": "S0311001_Cannot_OT2_baseColor.png"
    },
    {
      "uri": "S0311001_Cannot_OT2_occlusionRoughnessMetallic.png"
    },
    {
      "uri": "S0311001_Cannot_OT2_normal.png"
    }
  ],
  "materials": [
    {
      "alphaMode": "OPAQUE",
      "name": "S0311001_Can_Cloth_SF1",
      "normalTexture": {
        "index": 2
      },
      "occlusionTexture": {
        "index": 1
      },
      "pbrMetallicRoughness": {
        "baseColorTexture": {
          "index": 0
        },
        "metallicRoughnessTexture": {
          "index": 1
        }
      }
    },
    {
      "alphaMode": "OPAQUE",
      "name": "S0311001_Can_Cloth_SF2",
      "normalTexture": {
        "index": 5
      },
      "occlusionTexture": {
        "index": 4
      },
      "pbrMetallicRoughness": {
        "baseColorTexture": {
          "index": 3
        },
        "metallicRoughnessTexture": {
          "index": 4
        }
      }
    },
    {
      "alphaMode": "OPAQUE",
      "name": "S0311001_Cannot_OT1",
      "normalTexture": {
        "index": 8
      },
      "occlusionTexture": {
        "index": 7
      },
      "pbrMetallicRoughness": {
        "baseColorTexture": {
          "index": 6
        },
        "metallicRoughnessTexture": {
          "index": 7
        }
      }
    },
    {
      "alphaMode": "OPAQUE",
      "name": "S0311001_Cannot_OT2",
      "normalTexture": {
        "index": 11
      },
      "occlusionTexture": {
        "index": 10
      },
      "pbrMetallicRoughness": {
        "baseColorTexture": {
          "index": 9
        },
        "metallicRoughnessTexture": {
          "index": 10
        }
      }
    }
  ],
  "meshes": [
    {
      "name": "S0311001_Cannot_OT1",
      "primitives": [
        {
          "attributes": {
            "NORMAL": 2,
            "POSITION": 1,
            "TEXCOORD_0": 3
          },
          "indices": 0,
          "material": 2,
          "mode": 4
        }
      ]
    },
    {
      "name": "S0311001_Can_Cloth_SF2",
      "primitives": [
        {
          "attributes": {
            "NORMAL": 6,
            "POSITION": 5,
            "TEXCOORD_0": 7
          },
          "indices": 4,
          "material": 1,
          "mode": 4
        }
      ]
    },
    {
      "name": "S0311001_Cannot_OT2",
      "primitives": [
        {
          "attributes": {
            "NORMAL": 10,
            "POSITION": 9,
            "TEXCOORD_0": 11
          },
          "indices": 8,
          "material": 3,
          "mode": 4
        }
      ]
    },
    {
      "name": "S0311001_Can_Cloth_SF1",
      "primitives": [
        {
          "attributes": {
            "NORMAL": 14,
            "POSITION": 13,
            "TEXCOORD_0": 15
          },
          "indices": 12,
          "material": 0,
          "mode": 4
        }
      ]
    }
  ],
  "nodes": [
    {
      "children": [
        1,
        3,
        5,
        7
      ],
      "name": "RootNode"
    },
    {
      "children": [
        2
      ],
      "name": "S0311001_Cannot_OT1",
      "rotation": [
        -0.70710676908493,
        0.0,
        0.0,
        0.70710676908493
      ],
      "translation": [
        -0.00561763346195221,
        0.0,
        0.00656789541244507
      ]
    },
    {
      "mesh": 0,
      "name": "S0311001_Cannot_OT1"
    },
    {
      "children": [
        4
      ],
      "name": "S0311001_Can_Cloth_SF2",
      "rotation": [
        -0.70710676908493,
        0.0,
        0.0,
        0.70710676908493
      ],
      "translation": [
        -0.00561763346195221,
        0.0,
        0.00656789541244507
      ]
    },
    {
      "mesh": 1,
      "name": "S0311001_Can_Cloth_SF2"
    },
    {
      "children": [
        6
      ],
      "name": "S0311001_Cannot_OT2",
      "rotation": [
        -0.70710676908493,
        0.0,
        0.0,
        0.70710676908493
      ],
      "translation": [
        -0.00561763346195221,
        0.0,
        0.00656789541244507
      ]
    },
    {
      "mesh": 2,
      "name": "S0311001_Cannot_OT2"
    },
    {
      "children": [
        8
      ],
      "name": "S0311001_Can_Cloth_SF1",
      "rotation": [
        -0.70710676908493,
        0.0,
        0.0,
        0.70710676908493
      ],
      "translation": [
        -0.00561763346195221,
        0.0,
        0.00656789541244507
      ]
    },
    {
      "mesh": 3,
      "name": "S0311001_Can_Cloth_SF1"
    }
  ],
  "samplers": [
    {
      "magFilter": 9729,
      "minFilter": 9985,
      "wrapS": 10497,
      "wrapT": 10497
    }
  ],
  "scene": 0,
  "scenes": [
    {
      "name": "Scene",
      "nodes": [
        0
      ]
    }
  ],
  "textures": [
    {
      "sampler": 0,
      "source": 0
    },
    {
      "sampler": 0,
      "source": 1
    },
    {
      "sampler": 0,
      "source": 2
    },
    {
      "sampler": 0,
      "source": 3
    },
    {
      "sampler": 0,
      "source": 4
    },
    {
      "sampler": 0,
      "source": 5
    },
    {
      "sampler": 0,
      "source": 6
    },
    {
      "sampler": 0,
      "source": 7
    },
    {
      "sampler": 0,
      "source": 8
    },
    {
      "sampler": 0,
      "source": 9
    },
    {
      "sampler": 0,
      "source": 10
    },
    {
      "sampler": 0,
      "source": 11
    }
  ]
}